<svg xmlns="http://www.w3.org/2000/svg" viewBox="0 0 260 96" role="img" aria-labelledby="title">
  <title id="title">ESPA</title>
  <g fill="#f01445">
    <g transform="translate(52 48)">
      <path d="M0-34c7 8 9 18 6 30l-14-8c-3-10-1-17 8-22Z"/>
      <path d="M31-14c-10 1-19 6-26 16l-2-16c6-9 14-12 28 0Z"/>
      <path d="M20 26c-6-9-15-14-28-15l12-10c11 1 18 7 16 25Z"/>
      <path d="M-22 26c4-10 3-20-5-31l16 3c7 8 8 17-11 28Z"/>
      <path d="M-32-12c11 3 21 1 30-8l-2 16c-8 8-18 9-28-8Z"/>
      <circle r="9"/>
    </g>
    <text x="92" y="59" font-family="Arial, Helvetica, sans-serif" font-size="42" font-weight="900" font-style="italic" letter-spacing="-2">ESPA</text>
  </g>
</svg>
